<?xml version="1.0" standalone="no"?>
<!DOCTYPE svg PUBLIC "-//W3C//DTD SVG 20010904//EN"
 "http://www.w3.org/TR/2001/REC-SVG-20010904/DTD/svg10.dtd">
<svg version="1.0" xmlns="http://www.w3.org/2000/svg"
 width="427.000000pt" height="232.000000pt" viewBox="0 0 427.000000 232.000000"
 preserveAspectRatio="xMidYMid meet">

<g transform="translate(0.000000,232.000000) scale(0.100000,-0.100000)"
fill="#000000" stroke="none">
<path d="M774 1772 c-10 -6 -174 -344 -174 -358 0 -2 -34 -78 -76 -167 -42
-89 -87 -185 -100 -213 -30 -64 -30 -74 1 -74 30 0 51 31 97 143 l32 77 239 0
238 0 35 -77 c57 -128 57 -128 92 -131 39 -4 49 -32 -101 293 -66 143 -142
309 -169 370 -61 137 -80 160 -114 137z m124 -299 c51 -111 95 -209 98 -217 5
-14 -17 -16 -200 -16 -113 0 -206 2 -206 6 0 3 34 80 76 172 42 92 88 191 101
221 13 30 28 50 32 45 4 -5 49 -100 99 -211z"/>
<path d="M1362 1763 c-4 -10 -7 -191 -7 -403 l0 -385 28 -3 27 -3 0 112 0 111
82 84 c45 46 85 84 89 84 4 0 78 -84 165 -187 87 -104 163 -191 169 -195 12
-9 65 -11 65 -2 0 7 -46 64 -175 219 -140 168 -165 201 -165 218 0 8 70 88
155 176 154 160 182 200 128 187 -34 -9 -111 -81 -324 -303 -96 -99 -176 -179
-179 -176 -3 2 -7 111 -10 241 -5 215 -7 237 -23 240 -9 2 -20 -5 -25 -15z"/>
<path d="M2307 1756 c-149 -62 -239 -191 -253 -363 -10 -121 28 -229 112 -323
43 -47 162 -107 240 -121 116 -20 294 40 374 128 186 200 124 546 -118 665
-62 31 -74 33 -182 36 -103 2 -121 0 -173 -22z m263 -32 c71 -21 116 -51 177
-118 66 -72 88 -133 88 -246 0 -76 -3 -92 -33 -152 -111 -227 -394 -284 -577
-117 -142 130 -166 342 -56 489 102 135 250 189 401 144z"/>
<path d="M2527 1534 c-11 -12 3 -24 29 -24 29 0 30 -17 5 -47 -26 -31 -38 -29
-62 12 -23 39 -39 44 -55 18 -48 -77 -124 -216 -124 -227 0 -23 115 -33 228
-20 62 8 65 19 27 94 -31 61 -31 71 -2 98 29 28 37 28 37 0 0 -27 15 -54 23
-41 3 5 7 38 8 73 l3 65 -55 3 c-30 2 -58 0 -62 -4z m-9 -153 c23 -44 42 -84
42 -90 0 -7 -35 -11 -101 -11 -55 0 -99 3 -97 8 13 30 101 172 106 172 4 0 26
-36 50 -79z"/>
<path d="M2965 1770 c-3 -6 42 -122 100 -258 59 -136 134 -310 168 -387 33
-77 65 -143 71 -147 32 -22 47 -7 92 90 153 328 316 703 309 711 -4 3 -18 -1
-33 -9 -19 -11 -40 -47 -77 -130 -149 -333 -253 -567 -259 -585 -10 -24 2 -48
-141 285 -58 135 -123 283 -143 329 -37 82 -73 124 -87 101z"/>
<path d="M1116 769 c-8 -43 -8 -51 4 -44 6 3 10 15 10 25 0 21 28 40 59 40 20
0 21 -5 21 -124 0 -121 -1 -125 -22 -129 -13 -2 6 -4 42 -4 36 0 55 2 43 4
-21 4 -22 10 -25 125 -3 129 -1 136 47 124 17 -4 27 -17 34 -39 l9 -32 1 43 1
42 -109 0 -108 0 -7 -31z"/>
<path d="M1723 789 c15 -9 17 -26 17 -124 0 -98 -2 -115 -17 -124 -14 -8 -8
-10 27 -11 29 0 40 3 32 9 -10 6 -13 27 -12 67 1 33 2 89 1 127 l-1 67 -32 0
c-27 -1 -30 -2 -15 -11z"/>
<path d="M2353 793 c15 -4 17 -19 17 -128 0 -109 -2 -124 -17 -128 -10 -3 5
-5 32 -5 28 0 42 2 33 5 -16 4 -18 19 -18 134 l0 129 -32 -1 c-18 -1 -25 -3
-15 -6z"/>
<path d="M2873 774 c-8 -20 8 -36 26 -25 15 10 8 41 -9 41 -6 0 -13 -7 -17
-16z"/>
<path d="M1371 664 c-39 -49 -24 -114 30 -133 38 -13 82 4 87 34 3 18 2 18
-13 -2 -24 -34 -72 -31 -86 4 -16 43 -6 53 55 53 48 0 55 2 49 18 -20 57 -86
71 -122 26z m84 -5 c9 -27 4 -31 -38 -27 -31 3 -34 5 -26 26 11 29 55 30 64 1z"/>
<path d="M1562 667 c-27 -29 -29 -86 -4 -117 34 -42 124 -24 121 24 0 6 -7 1
-16 -11 -20 -29 -68 -31 -83 -4 -15 30 -12 88 6 106 22 22 59 16 59 -10 0 -21
26 -28 32 -9 7 20 -27 44 -61 44 -21 0 -40 -8 -54 -23z"/>
<path d="M1784 678 c-5 -8 -2 -9 9 -5 36 14 47 -2 47 -68 0 -41 -4 -65 -12
-68 -7 -3 7 -6 32 -6 35 0 41 2 28 10 -14 8 -18 24 -18 73 0 49 -4 65 -16 70
-26 10 -62 7 -70 -6z"/>
<path d="M1933 683 c14 -4 17 -16 17 -73 0 -57 -3 -69 -17 -73 -10 -3 5 -5 32
-6 38 0 46 2 33 10 -30 17 -19 112 14 130 32 17 48 -6 48 -71 0 -47 -3 -59
-17 -63 -10 -3 5 -5 32 -5 28 0 42 2 33 5 -15 4 -18 16 -18 67 0 35 -5 67 -12
74 -16 16 -60 15 -77 0 -11 -10 -14 -10 -18 0 -3 6 -19 11 -36 11 -18 -1 -24
-3 -14 -6z"/>
<path d="M2171 664 c-46 -58 -16 -135 53 -137 72 -2 111 79 65 137 -29 37 -89
37 -118 0z m87 4 c13 -13 16 -85 6 -112 -9 -24 -61 -20 -75 5 -14 27 -6 99 13
110 19 12 42 11 56 -3z"/>
<path d="M2482 667 c-27 -29 -29 -86 -4 -117 25 -31 85 -32 115 -2 28 28 30
92 3 121 -27 30 -86 28 -114 -2z m86 1 c13 -13 16 -85 6 -112 -4 -10 -18 -16
-35 -16 -33 0 -49 23 -49 70 0 17 5 40 10 51 12 21 50 25 68 7z"/>
<path d="M2673 663 c-13 -20 -14 -31 -6 -53 7 -18 7 -32 1 -38 -5 -5 -8 -20
-6 -33 3 -22 9 -25 63 -29 56 -5 60 -7 60 -30 0 -17 -9 -29 -29 -39 -39 -18
-81 -4 -80 27 1 26 -14 29 -23 5 -11 -27 35 -56 80 -50 48 7 77 32 77 68 0 35
-24 49 -85 49 -39 0 -46 3 -43 17 2 14 11 17 39 15 46 -4 72 23 67 70 -2 26 1
32 14 30 9 -1 19 2 22 7 3 5 -25 9 -64 9 -65 1 -72 -1 -87 -25z m85 -12 c6
-40 -7 -71 -28 -71 -29 0 -47 42 -32 76 16 33 55 30 60 -5z"/>
<path d="M2853 683 c14 -4 17 -16 17 -73 0 -57 -3 -69 -17 -73 -10 -3 5 -5 32
-5 28 0 42 2 33 5 -15 4 -18 16 -18 79 l0 74 -32 -1 c-18 -1 -25 -3 -15 -6z"/>
<path d="M2981 664 c-24 -30 -26 -61 -10 -98 23 -49 104 -53 129 -6 14 26 -1
26 -18 0 -7 -12 -23 -20 -41 -20 -30 0 -41 14 -41 56 0 22 3 24 55 24 60 0 61
1 44 33 -16 30 -28 37 -66 37 -22 0 -38 -8 -52 -26z m87 -11 c3 -20 -1 -23
-32 -23 -38 0 -47 15 -24 38 20 20 53 10 56 -15z"/>
<path d="M3166 674 c-30 -29 -19 -53 38 -80 46 -22 55 -39 27 -53 -26 -14 -48
-5 -66 28 l-14 26 -1 -32 c0 -27 4 -32 30 -38 42 -9 84 13 88 48 3 24 -2 29
-43 47 -53 23 -60 53 -12 58 21 3 29 -2 36 -20 10 -23 10 -22 10 5 1 25 -2 27
-38 27 -23 0 -46 -7 -55 -16z"/>
</g>
</svg>
